<svg width="148" height="24" viewBox="0 0 148 24" fill="none" xmlns="http://www.w3.org/2000/svg">
<path d="M17 2H14C12.6739 2 11.4021 2.52678 10.4645 3.46447C9.52678 4.40215 9 5.67392 9 7V10H6V14H9V22H13V14H16L17 10H13V7C13 6.73478 13.1054 6.48043 13.2929 6.29289C13.4804 6.10536 13.7348 6 14 6H17V2Z" stroke="#CCCCCC" stroke-width="1.5" stroke-linecap="round" stroke-linejoin="round"/>
<mask id="mask0_546_501" style="mask-type:luminance" maskUnits="userSpaceOnUse" x="32" y="2" width="20" height="20">
<path d="M32 2H52V22H32V2Z" fill="white"/>
</mask>
<g mask="url(#mask0_546_501)">
<path d="M47.75 2.9375H50.8171L44.1171 10.6146L52 21.0632H45.8286L40.9914 14.7275L35.4629 21.0632H32.3929L39.5586 12.8489L32 2.93893H38.3286L42.6943 8.72893L47.75 2.9375ZM46.6714 19.2232H48.3714L37.4 4.68179H35.5771L46.6714 19.2232Z" fill="#CCCCCC"/>
</g>
<path d="M66.9395 5.00002C66.9392 5.53046 66.7282 6.03906 66.353 6.41394C65.9777 6.78883 65.4689 6.99929 64.9385 6.99902C64.408 6.99876 63.8994 6.78779 63.5245 6.41253C63.1496 6.03727 62.9392 5.52846 62.9395 4.99802C62.9397 4.46759 63.1507 3.95899 63.5259 3.5841C63.9012 3.20922 64.41 2.99876 64.9405 2.99902C65.4709 2.99929 65.9795 3.21026 66.3544 3.58552C66.7293 3.96078 66.9397 4.46959 66.9395 5.00002ZM66.9995 8.48002H62.9995V21H66.9995V8.48002ZM73.3195 8.48002H69.3395V21H73.2795V14.43C73.2795 10.77 78.0495 10.43 78.0495 14.43V21H81.9995V13.07C81.9995 6.90002 74.9395 7.13002 73.2795 10.16L73.3195 8.48002Z" fill="#CCCCCC"/>
<path d="M96 20C95.45 20 94.9793 19.8043 94.588 19.413C94.1967 19.0217 94.0007 18.5507 94 18V6C94 5.45 94.196 4.97933 94.588 4.588C94.98 4.19667 95.4507 4.00067 96 4H112C112.55 4 113.021 4.196 113.413 4.588C113.805 4.98 114.001 5.45067 114 6V18C114 18.55 113.804 19.021 113.413 19.413C113.022 19.805 112.551 20.0007 112 20H96ZM104 13L96 8V18H112V8L104 13ZM104 11L112 6H96L104 11ZM96 8V6V18V8Z" fill="#CCCCCC"/>
<path d="M131.8 2H140.2C143.4 2 146 4.6 146 7.8V16.2C146 17.7383 145.389 19.2135 144.301 20.3012C143.214 21.3889 141.738 22 140.2 22H131.8C128.6 22 126 19.4 126 16.2V7.8C126 6.26174 126.611 4.78649 127.699 3.69878C128.786 2.61107 130.262 2 131.8 2ZM131.6 4C130.645 4 129.73 4.37928 129.054 5.05442C128.379 5.72955 128 6.64522 128 7.6V16.4C128 18.39 129.61 20 131.6 20H140.4C141.355 20 142.27 19.6207 142.946 18.9456C143.621 18.2705 144 17.3548 144 16.4V7.6C144 5.61 142.39 4 140.4 4H131.6ZM141.25 5.5C141.582 5.5 141.899 5.6317 142.134 5.86612C142.368 6.10054 142.5 6.41848 142.5 6.75C142.5 7.08152 142.368 7.39946 142.134 7.63388C141.899 7.8683 141.582 8 141.25 8C140.918 8 140.601 7.8683 140.366 7.63388C140.132 7.39946 140 7.08152 140 6.75C140 6.41848 140.132 6.10054 140.366 5.86612C140.601 5.6317 140.918 5.5 141.25 5.5ZM136 7C137.326 7 138.598 7.52678 139.536 8.46447C140.473 9.40215 141 10.6739 141 12C141 13.3261 140.473 14.5979 139.536 15.5355C138.598 16.4732 137.326 17 136 17C134.674 17 133.402 16.4732 132.464 15.5355C131.527 14.5979 131 13.3261 131 12C131 10.6739 131.527 9.40215 132.464 8.46447C133.402 7.52678 134.674 7 136 7ZM136 9C135.204 9 134.441 9.31607 133.879 9.87868C133.316 10.4413 133 11.2044 133 12C133 12.7956 133.316 13.5587 133.879 14.1213C134.441 14.6839 135.204 15 136 15C136.796 15 137.559 14.6839 138.121 14.1213C138.684 13.5587 139 12.7956 139 12C139 11.2044 138.684 10.4413 138.121 9.87868C137.559 9.31607 136.796 9 136 9Z" fill="#CCCCCC"/>
</svg>
